<?xml version="1.0"?>
<svg xmlns="http://www.w3.org/2000/svg" xmlns:xlink="http://www.w3.org/1999/xlink" version="1.1" id="Capa_1" x="0px" y="0px" viewBox="0 0 261.866 261.866" style="enable-background:new 0 0 261.866 261.866;" xml:space="preserve" width="512px" height="512px" class=""><g><path d="M261.866,205.825c0,1.989-0.79,3.896-2.196,5.304l-47.961,47.96c-1.465,1.464-3.385,2.196-5.304,2.196  c-1.92,0-3.839-0.732-5.304-2.196L144.3,202.287l-51.248,51.25c-1.838,1.837-4.493,2.592-7.024,1.996  c-2.528-0.596-4.569-2.458-5.393-4.923L0.387,10.458c-0.901-2.696-0.2-5.67,1.81-7.681c2.011-2.009,4.981-2.713,7.681-1.81  L250.03,81.216c2.465,0.823,4.327,2.864,4.923,5.393c0.597,2.529-0.159,5.187-1.996,7.024l-50.089,50.088l56.802,56.801  C261.076,201.929,261.866,203.836,261.866,205.825z" data-original="#000000" class="active-path" data-old_color="#000000" fill="#FFFFFF"/></g> </svg>
